# xmcd CD database file
#
# Track frame offsets:
#	150
#	14065
#	25968
#	41872
#	54701
#	72616
#	85293
#	97383
#	109031
#	124648
#	137923
#	149051
#	159788
#	173348
#	185946
#	197203
#	207348
#	214078
#
# Disc length: 3087 seconds
#
# Revision: 1
# Processed by: cddbd v1.4PL0 Copyright (c) Steve Scherf et al.
# Submitted via: CDex 1.50Beta7
#
DISCID=1f0c0d12
DTITLE=Don Williams - You're my best friend
DYEAR=1999
DGENRE=Country
TTITLE0=You're My Best Friend
TTITLE1=Tulsa Time
TTITLE2=I've Been Loved By The Best
TTITLE3=Amanda
TTITLE4=Good Ole Boys Like Me
TTITLE5=There's Never Been A Time
TTITLE6=On Her Way To Being A Woman
TTITLE7=Follw Me Back To Louisville
TTITLE8=Tears
TTITLE9=Where Do I Go From Here
TTITLE10=Spend Some Time With Me
TTITLE11=(There's) Always Something There To Remind Me
TTITLE12=Ruby Tuesday
TTITLE13=Coming Apart
TTITLE14=Storybook Children
TTITLE15=Take My Hand For A While
TTITLE16=Lord I Hope This Day Is Good
TTITLE17=I Believe In You
EXTD=YEAR: 1999
EXTT0=
EXTT1=
EXTT2=
EXTT3=
EXTT4=
EXTT5=
EXTT6=
EXTT7=
EXTT8=
EXTT9=
EXTT10=
EXTT11=
EXTT12=
EXTT13=
EXTT14=
EXTT15=
EXTT16=
EXTT17=
PLAYORDER=
